<?xml version="1.0" standalone="no"?><!DOCTYPE svg PUBLIC "-//W3C//DTD SVG 1.1//EN" "http://www.w3.org/Graphics/SVG/1.1/DTD/svg11.dtd"><svg t="1748760747619" class="icon" viewBox="0 0 1024 1024" version="1.1" xmlns="http://www.w3.org/2000/svg" p-id="6666" xmlns:xlink="http://www.w3.org/1999/xlink" width="256" height="256"><path d="M512.060687 512m-512 0a512 512 0 1 0 1024 0 512 512 0 1 0-1024 0Z" fill="#FAFAFA" p-id="6667"></path><path d="M795.829158 938.164706l-3.870118 2.56a512.210824 512.210824 0 0 1-180.856471 73.682823l-9.08047 1.686589-5.421177 0.948706-2.409411 0.37647-6.731295 1.084235-7.68 1.039059-2.183529 0.286118 1.746824-0.225882a504.380235 504.380235 0 0 1-49.724236 4.111058L512.060687 1024c-26.398118 0-52.359529-1.972706-77.748706-5.857882l-4.382117-0.722824-2.921412-0.451765c-3.915294-0.662588-7.830588-1.355294-11.715765-2.108235l-2.183529-0.451765-1.024-0.150588a509.771294 509.771294 0 0 1-3.222589-0.722823l-7.318588-1.536-5.180235-1.174589a503.792941 503.792941 0 0 1-26.337882-6.806588l-7.092706-2.108235c-3.523765-1.054118-7.032471-2.153412-10.541177-3.312941l-6.791529-2.334118a488.583529 488.583529 0 0 1-25.901177-9.652706l-5.556706-2.273882a507.813647 507.813647 0 0 1-68.668235-35.132235l-4.683294-2.921412-8.628706-5.571765-3.870118-2.56-2.499764-1.611294A514.800941 514.800941 0 0 1 70.746805 771.584l-0.737883-1.325176a511.472941 511.472941 0 0 1-22.437647-42.812236l-0.527059-1.159529a509.650824 509.650824 0 0 1-25.148235-66.319059l0.512 1.912471c-64.105412-210.130824 12.8-437.76 191.201883-565.820236a511.698824 511.698824 0 0 1 596.901647 0c178.386824 128.060235 255.307294 355.689412 191.201882 565.820236l0.512-1.912471a508.551529 508.551529 0 0 1-25.148235 66.319059l-0.512 1.159529c-6.806588 14.622118-14.305882 28.912941-22.452706 42.812236l-0.737883 1.325176A513.626353 513.626353 0 0 1 798.328922 936.538353l-2.409411 1.611294h-0.090353z m-147.727059-336.082824H376.019275A240.941176 240.941176 0 0 0 144.926569 774.957176a451.388235 451.388235 0 0 0 367.073883 188.747295c145.618824 0 282.307765-70.279529 367.088941-188.762353a240.941176 240.941176 0 0 0-230.972235-172.860236zM512.000452 180.705882a180.630588 180.630588 0 0 0-156.446118 90.383059 180.871529 180.871529 0 0 0 0 180.766118 180.630588 180.630588 0 0 0 337.106824-90.383059c0-99.84-80.880941-180.766118-180.660706-180.766118z" fill="#E5E5E5" p-id="6668"></path></svg>