<?xml version="1.0" standalone="no"?><!DOCTYPE svg PUBLIC "-//W3C//DTD SVG 1.1//EN" "http://www.w3.org/Graphics/SVG/1.1/DTD/svg11.dtd"><svg t="1748760639294" class="icon" viewBox="0 0 1024 1024" version="1.1" xmlns="http://www.w3.org/2000/svg" p-id="2625" xmlns:xlink="http://www.w3.org/1999/xlink" width="256" height="256"><path d="M537.697524 245.369905a339.821714 339.821714 0 1 0 335.725714 343.868952v-3.998476a335.725714 335.725714 0 0 0-331.580952-339.821714z m170.666666 306.322285l-66.121142 66.852572 16.432762 94.646857c5.461333 33.499429-10.971429 44.617143-38.37562 27.89181l-82.45638-44.568381-82.553905 44.568381c-27.40419 16.725333-43.885714 0-38.375619-27.89181l16.481524-94.646857-65.77981-66.852572c-21.942857-22.28419-16.432762-44.568381 16.432762-50.127238l88.064-10.971428 38.375619-83.577905c10.971429-27.843048 32.865524-27.843048 49.298286 0l38.375619 83.577905 93.574095 10.971428c32.865524 10.922667 43.885714 27.89181 16.432762 50.127238z m165.10781-462.214095a17.554286 17.554286 0 0 0 5.461333-10.971428 23.844571 23.844571 0 0 0-21.894095-22.284191h-209.188571a19.114667 19.114667 0 0 0-21.942857 15.847619v0.828953l-66.072381 122.489904a368.688762 368.688762 0 0 1 220.013714 89.088z m-357.717333 105.764572L449.584762 67.145143a19.114667 19.114667 0 0 0-21.211429-16.774095H223.914667a25.209905 25.209905 0 0 0-27.404191 22.332952c0 5.461333 0 10.971429 5.510095 10.971429l93.525334 195.047619a439.344762 439.344762 0 0 1 220.208762-83.577905z" fill="#FFB500" p-id="2626"></path></svg>