<?xml version="1.0" standalone="no"?><!DOCTYPE svg PUBLIC "-//W3C//DTD SVG 1.1//EN" "http://www.w3.org/Graphics/SVG/1.1/DTD/svg11.dtd"><svg t="1748785943637" class="icon" viewBox="0 0 1024 1024" version="1.1" xmlns="http://www.w3.org/2000/svg" p-id="4637" xmlns:xlink="http://www.w3.org/1999/xlink" width="256" height="256"><path d="M324.128 752.704l-118.336 0 0-40.768 118.336-91.04 0 131.84z" fill="#444444" p-id="4638"></path><path d="M473.088 752.704l-118.336 0 0-153.728 61.184-47.04 57.184 56.32 0 144.448z" fill="#444444" p-id="4639"></path><path d="M622.08 752.704l-118.336 0 0-99.584 118.336-116.512 0 216.096z" fill="#444444" p-id="4640"></path><path d="M771.072 752.704l-118.336 0 0-246.72 67.424-66.464 50.912 46.72 0 266.464z" fill="#444444" p-id="4641"></path><path d="M748.64 393.12l-29.472-29.024-209.28 205.952-91.584-90.176-212.864 161.92 0-69.376 217.6-168.832 86.944 85.536 168.192-165.376-32.48-32.032 139.744-36.128-36.8 137.568z" fill="#444444" p-id="4642"></path><path d="M512 1009.792c-67.104 0-132.224-13.184-193.728-39.168-59.2-25.024-112.416-60.896-158.24-106.656-45.664-45.568-81.6-98.848-106.688-158.176-25.92-61.472-39.104-126.688-39.104-193.792s13.184-132.32 39.104-193.76c25.056-59.2 60.928-112.416 106.688-158.208 45.664-45.696 98.944-81.6 158.24-106.688 61.44-25.952 126.592-39.104 193.728-39.104s132.256 13.152 193.728 39.104c59.136 25.056 112.384 60.928 158.24 106.656 45.632 45.664 81.536 98.88 106.656 158.208 25.92 61.472 39.168 126.688 39.168 193.792 0 89.824-24.256 177.824-70.016 254.592-6.88 11.52-19.392 18.656-32.736 18.656-6.848 0-13.6-1.888-19.488-5.408-8.736-5.216-14.944-13.504-17.408-23.392-2.528-9.856-0.992-20.16 4.288-28.928 38.688-64.864 59.168-139.392 59.168-215.552 0-56.96-11.136-112.128-33.12-164.032-21.248-50.272-51.648-95.328-90.272-133.984-38.688-38.656-83.744-69.056-133.984-90.304-52-21.984-107.232-33.12-164.096-33.12-56.928 0-112.096 11.136-164.096 33.12-50.24 21.248-95.296 51.648-133.984 90.304-38.624 38.656-69.024 83.712-90.272 133.984-22.08 51.968-33.216 107.2-33.216 164.096 0 56.832 11.136 112.032 33.088 164.064 21.216 50.144 51.648 95.232 90.304 133.952 38.72 38.624 83.744 69.024 133.984 90.368 52 21.888 107.232 33.056 164.096 33.056 82.88 0 163.168-24.064 232.064-69.568 6.24-4.096 13.536-6.304 20.992-6.304 12.768 0 24.672 6.336 31.744 17.056 11.584 17.536 6.784 41.216-10.688 52.896-81.472 53.76-176.256 82.208-274.144 82.208z" fill="#444444" p-id="4643"></path></svg>