<?xml version="1.0" standalone="no"?><!DOCTYPE svg PUBLIC "-//W3C//DTD SVG 1.1//EN" "http://www.w3.org/Graphics/SVG/1.1/DTD/svg11.dtd"><svg t="1745548389725" class="icon" viewBox="0 0 1024 1024" version="1.1" xmlns="http://www.w3.org/2000/svg" p-id="2668" xmlns:xlink="http://www.w3.org/1999/xlink" width="256" height="256"><path d="M904 264.4L548.2 112.2c-23.2-9.9-49.4-9.9-72.6 0L119.8 264.4c-34.2 14.2-56.3 47.8-56 84.8 0 11.7 2.1 23.3 6.4 34.2v201.8c0 10.5 8.5 19.1 19.1 19.1s19.1-8.5 19.1-19.1V428.3c3.7 2.2 7.5 4.1 11.5 5.8l355.8 152.2c23.2 9.8 49.4 9.8 72.6 0L904 434.1c34-14.5 56-47.9 56-84.8 0-37-22.1-70.3-56-84.9z m0 0" fill="#231815" p-id="2669"></path><path d="M835 511.4c-7.3-4.7-16.5-5.3-24.4-1.6L558.2 627.2l-0.9 0.5a98.99 98.99 0 0 1-90.8 0l-0.9-0.5-252.4-117.5c-7.9-3.7-17.1-3.1-24.4 1.6-7.3 4.7-11.8 12.8-11.8 21.5v183c0 33.6 20.3 63.9 51.4 76.6 181.6 74.9 385.5 74.9 567.1 0 31.1-12.7 51.4-43 51.4-76.6v-183c-0.1-8.7-4.5-16.8-11.9-21.4z m0 0" fill="#231815" p-id="2670"></path></svg>