<?xml version="1.0" standalone="no"?><!DOCTYPE svg PUBLIC "-//W3C//DTD SVG 1.1//EN" "http://www.w3.org/Graphics/SVG/1.1/DTD/svg11.dtd"><svg t="1748829290701" class="icon" viewBox="0 0 1024 1024" version="1.1" xmlns="http://www.w3.org/2000/svg" p-id="2631" xmlns:xlink="http://www.w3.org/1999/xlink" width="256" height="256"><path d="M414.165333 768.853333a42.496 42.496 0 0 1-27.989333 12.458667L384 781.397333a42.666667 42.666667 0 0 1-31.658667-71.253333l1.493334-1.578667 188.586666-188.586666a32 32 0 0 0 1.28-43.861334l-1.28-1.365333-188.586666-188.586667A42.666667 42.666667 0 0 1 384.128 213.333333l2.133333 0.042667a42.496 42.496 0 0 1 26.368 10.965333l1.536 1.493334 203.648 203.648a96 96 0 0 1 1.962667 133.717333l-1.962667 2.048-203.648 203.648z" fill="#000000" p-id="2632"></path></svg>