<?xml version="1.0" standalone="no"?><!DOCTYPE svg PUBLIC "-//W3C//DTD SVG 1.1//EN" "http://www.w3.org/Graphics/SVG/1.1/DTD/svg11.dtd"><svg t="1748785967530" class="icon" viewBox="0 0 1024 1024" version="1.1" xmlns="http://www.w3.org/2000/svg" p-id="5661" xmlns:xlink="http://www.w3.org/1999/xlink" width="256" height="256"><path d="M886.272 226.816a38.613333 38.613333 0 0 0-16.384-12.288c-65.024-28.16-131.072-56.32-196.608-83.456-51.2-21.504-101.888-43.008-153.088-64.512H499.2l-13.824 6.144c-100.352 41.984-200.192 84.48-300.032 126.464-12.8 5.632-25.088 10.752-38.4 16.384-10.24 4.608-17.408 11.776-17.408 23.552s6.144 19.456 16.896 24.064c1.536 1.024 4.096 1.536 5.632 2.56 113.664 50.688 227.84 101.376 341.504 152.576 11.264 5.632 21.504 5.632 33.28 0 97.792-43.52 194.56-87.04 291.84-130.56 18.944-7.68 36.864-16.384 55.296-24.576 15.872-7.168 21.504-23.552 12.288-36.352z m-515.584 33.792c-26.112 20.48-75.776 20.992-103.424 0.512-18.432-13.312-18.432-34.304-0.512-48.128a78.08 78.08 0 0 1 44.544-15.36c25.6 0 43.52 3.584 59.392 15.36 17.408 13.824 17.408 34.304 0 47.616z m190.976 0c-25.6 20.992-77.824 20.992-103.936 0-17.408-13.824-16.896-34.304 1.024-47.616 15.872-11.776 33.28-15.36 56.832-15.36 12.8 0 30.72 3.584 45.568 14.336 17.92 14.336 18.432 34.816 0.512 48.64z m192 1.024c-26.112 20.48-75.776 20.992-103.424 0.512-18.432-13.824-18.432-34.304 0-48.128 15.36-12.288 32.768-15.872 51.2-15.872 18.432 0 35.84 3.584 51.2 15.36 18.944 13.824 18.944 33.792 1.024 48.128z m-280.576 184.832a3157.589333 3157.589333 0 0 1-75.776-33.792C308.736 372.736 220.672 333.824 132.096 294.4c-8.192-4.096-16.896-6.144-25.6-1.536-11.776 6.144-15.36 16.896-15.36 29.184V752.64c0 25.6 10.752 43.52 34.304 53.76a62645.333333 62645.333333 0 0 1 325.632 144.896c23.552 10.24 40.448-0.512 40.448-26.112v-223.232c0-74.752 0-148.992 1.024-223.744 1.536-15.36-4.608-25.6-19.456-31.744zM312.32 656.896c-12.288 18.432-33.28 19.968-47.616 2.56-16.384-18.944-20.992-41.984-18.432-65.536 1.536-12.8 6.144-25.6 11.776-36.864 10.752-19.456 32.256-19.968 47.104-3.584 12.8 13.824 19.456 34.304 19.456 51.712 0 22.528-3.072 37.376-12.288 51.712zM889.344 294.4l-340.992 152.064c-14.336 6.656-20.48 16.384-20.48 31.744v223.232c0 75.264 0 149.504 0.512 224.768 0 24.064 16.896 35.328 38.912 25.6l329.728-146.944c22.016-9.728 32.768-27.136 32.768-50.688V321.536c-0.512-25.088-17.92-36.864-40.448-27.136z m-212.48 501.76c-14.336 17.408-34.816 16.384-48.128-2.56-18.432-27.648-15.872-77.312 6.144-102.4 15.36-17.92 35.328-16.384 48.128 3.584 7.68 11.776 11.776 28.672 11.776 48.128 0 17.408-4.608 36.864-17.92 53.248z m148.992-254.464c-14.336 17.408-34.816 16.384-48.128-2.56-17.92-27.136-15.872-75.776 4.608-100.352 16.896-20.48 37.376-18.944 51.2 4.096 6.656 10.24 10.752 25.088 10.752 41.984-1.024 20.48-4.608 40.96-18.432 56.832z" p-id="5662"></path></svg>