<?xml version="1.0" standalone="no"?><!DOCTYPE svg PUBLIC "-//W3C//DTD SVG 1.1//EN" "http://www.w3.org/Graphics/SVG/1.1/DTD/svg11.dtd"><svg t="1748831495780" class="icon" viewBox="0 0 1024 1024" version="1.1" xmlns="http://www.w3.org/2000/svg" p-id="8601" xmlns:xlink="http://www.w3.org/1999/xlink" width="256" height="256"><path d="M873.673395 874.249359l-0.31998 0.31998a513.887882 513.887882 0 0 1-117.560652 87.674521q-10.815324 5.887632-21.950628 11.1993l-0.895944 0.383976q-10.751328 5.183676-21.75864 9.855384l-1.91988 0.767952c-7.03956 2.943816-14.143116 5.75964-21.310668 8.383476l-3.1998 1.087932a455.139554 455.139554 0 0 1-20.542716 6.911568l-4.7997 1.343916c-6.3996 1.91988-12.7992 3.83976-19.1988 5.503656l-6.399601 1.535904c-6.015624 1.471908-12.031248 2.943816-18.110868 4.15974-2.87982 0.575964-5.823636 1.023936-8.767452 1.535904-5.43966 1.023936-10.943316 2.111868-16.446972 2.943816-3.775764 0.575964-7.551528 0.95994-11.327292 1.471908-4.735704 0.63996-9.471408 1.343916-14.271108 1.791888s-10.047372 0.767952-15.03906 1.151928c-3.647772 0-7.295544 0.63996-10.943316 0.831948Q525.215174 1023.936004 511.968002 1023.936004t-26.430348-0.703956l-7.103556-0.511968c-6.3996-0.383976-12.7992-0.831948-19.1988-1.471908l-7.35954-0.95994a387.815762 387.815762 0 0 1-18.366852-2.367852l-6.3996-1.215924a430.693082 430.693082 0 0 1-18.686832-3.327792l-5.695644-1.343916c-6.3996-1.407912-12.7992-2.815824-19.198801-4.47972l-4.607712-1.27992c-6.3996-1.791888-13.311168-3.647772-19.83876-5.695644l-3.583776-1.215924a450.851822 450.851822 0 0 1-20.414724-6.975564l-2.55984-1.023936a456.611462 456.611462 0 0 1-20.862696-8.31948l-1.5999-0.703956c-7.167552-3.071808-14.207112-6.3996-21.182676-9.663396l-0.895944-0.31998q-10.815324-5.311668-21.374664-11.007312a513.823886 513.823886 0 0 1-118.200612-89.146429 511.968002 511.968002 0 1 1 725.26667 2.047872zM511.968002 38.3976a473.570402 473.570402 0 0 0-326.379601 816.204987c14.07912-5.951628 29.374164-11.711268 45.949128-17.342916 131.895757-44.7972 154.102369-78.779076 154.102369-138.679332a33.021936 33.021936 0 0 0-13.247173-27.83826 147.766765 147.766765 0 0 1-41.725392-84.410725c-0.95994-4.735704-0.95994-4.735704-7.167552-7.487532a71.611524 71.611524 0 0 1-40.573464-75.1953 66.939816 66.939816 0 0 1 16.766952-48.63696 998.849572 998.849572 0 0 1-11.327292-74.619337 158.518093 158.518093 0 0 1 42.173364-115.83276 274.158865 274.158865 0 0 1 357.161678 0 158.582089 158.582089 0 0 1 42.173364 115.83276c-2.687832 26.622336-8.255484 58.23636-11.327292 74.555341a64.507968 64.507968 0 0 1 16.830948 47.293044 72.699456 72.699456 0 0 1-40.701456 76.7952c-6.3996 2.751828-6.3996 2.751828-7.167552 7.487532a147.766765 147.766765 0 0 1-41.725392 84.410725 33.021936 33.021936 0 0 0-13.247173 27.83826c0 59.900256 22.270608 94.138116 154.166365 138.679332 18.302856 6.3996 35.005812 12.7992 50.364852 19.1988A473.570402 473.570402 0 0 0 511.968002 38.3976z" fill="" p-id="8602"></path></svg>