<svg class="icon" viewBox="0 0 1024 1024" version="1.1" xmlns="http://www.w3.org/2000/svg" width="24" height="24">
    <path d="M512 892.586667v24.746666a21.333333 21.333333 0 0 1-21.333333 21.333334H408.32a42.666667 42.666667 0 0 1-36.693333-20.906667l-97.28-162.133333a116.053333 116.053333 0 0 1-15.36-42.666667h104.106666a176.64 176.64 0 0 1 66.986667 12.8l17.92 117.333333a42.666667 42.666667 0 0 0 32 24.32l14.08 2.56a21.333333 21.333333 0 0 1 17.92 22.613334zM938.666667 469.333333a170.666667 170.666667 0 0 1-34.133334 102.4 21.76 21.76 0 0 1-32 0l-30.72-30.72a21.333333 21.333333 0 0 1-2.56-26.88 85.333333 85.333333 0 0 0 0-93.866666 21.333333 21.333333 0 0 1 2.56-26.88l30.72-30.72a21.76 21.76 0 0 1 16.64-6.4 23.04 23.04 0 0 1 15.36 8.533333A170.666667 170.666667 0 0 1 938.666667 469.333333z m-170.666667-341.333333v682.666667a42.666667 42.666667 0 0 1-42.666667 42.666666h-25.173333a42.666667 42.666667 0 0 1-29.866667-12.373333l-128-125.866667A256 256 0 0 0 363.093333 640H213.333333a128 128 0 0 1-128-128v-85.333333a128 128 0 0 1 128-128h149.76a256 256 0 0 0 181.333334-75.093334l128-125.866666a42.666667 42.666667 0 0 1 29.866666-12.373334H725.333333a42.666667 42.666667 0 0 1 42.666667 42.666667z" fill="#1698CE"></path>
</svg>