<?xml version="1.0" standalone="no"?><!DOCTYPE svg PUBLIC "-//W3C//DTD SVG 1.1//EN" "http://www.w3.org/Graphics/SVG/1.1/DTD/svg11.dtd"><svg t="1748761279656" class="icon" viewBox="0 0 1024 1024" version="1.1" xmlns="http://www.w3.org/2000/svg" p-id="7656" xmlns:xlink="http://www.w3.org/1999/xlink" width="256" height="256"><path d="M512 960c-102.464 0-196.907-34.41-272.384-92.288l-2.73-2.133-0.47-0.342a450.133 450.133 0 0 1-9.75-7.829l10.22 8.192a450.155 450.155 0 0 1-51.2-46.635l-2.518-2.709A446.4 446.4 0 0 1 64 512C64 264.576 264.576 64 512 64s448 200.576 448 448c0 117.461-45.227 224.363-119.168 304.256l-2.517 2.71-0.427 0.447a359.393 359.393 0 0 1-7.936 8.192l8.363-8.64a450.816 450.816 0 0 1-51.2 46.635l-2.731 2.133A446.037 446.037 0 0 1 512 960z m6.72-682.667h-12.95l-4.842 0.064a139.05 139.05 0 0 0-134.613 133.995l-0.086 4.992v95.872l0.086 5.91a145.77 145.77 0 0 0 38.976 93.994l4.586 4.693 43.904 43.179 3.456 3.84a67.4 67.4 0 0 1 15.488 38.485l0.171 4.736-0.043 7.552-0.256 4.694a65.024 65.024 0 0 1-33.194 50.645l-3.819 1.963-132.395 62.378A382.208 382.208 0 0 0 512 896c77.013 0 148.693-22.656 208.81-61.675l-132.394-62.378a65.024 65.024 0 0 1-37.163-54.656l-0.149-4.182v-6.016a67.592 67.592 0 0 1 17.11-44.949l3.114-3.264 42.795-42.027a145.77 145.77 0 0 0 43.52-97.493l0.128-6.507v-96.469a139.05 139.05 0 0 0-134.059-138.965l-4.992-0.086zM512 128c-212.075 0-384 171.925-384 384 0 109.376 45.739 208.085 119.125 278.016l161.558-76.117c0.064 0.021 0.106 0.128 0.106 0.341l-0.021 0.405 0.128-1.536v-6.016c0-0.64-0.17-1.237-0.021-1.28l0.256 0.214-1.302-1.494-42.794-42.005a209.984 209.984 0 0 1-62.315-135.552l-0.384-7.04-0.107-7.083v-96.469c0-107.861 84.224-196.437 191.467-202.71l5.76-0.255 5.824-0.086h13.44a203.05 203.05 0 0 1 202.987 197.27l0.064 5.781v96.47a209.745 209.745 0 0 1-57.878 144.682l-4.906 4.992-42.816 42.027a3.563 3.563 0 0 0-0.939 1.6l-0.128 0.938v6.016c0 0.278 0.107 0.512 0.277 0.704l0.32 0.214 161.195 75.968A382.912 382.912 0 0 0 896 512c0-212.075-171.925-384-384-384z" fill="#333333" p-id="7657"></path></svg>