<svg class="icon" viewBox="0 0 1024 1024" version="1.1" xmlns="http://www.w3.org/2000/svg"
     width="24" height="24">
    <path d="M516.608 228.864c219.648 0 397.312 177.664 397.312 397.312 0 219.648-178.176 397.312-397.312 397.312-219.648 0-397.312-178.176-397.312-397.312S296.96 228.864 516.608 228.864z m-29.696 192.512l-48.64 98.304-108.544 15.872c-36.864 5.12-44.544 30.208-18.432 55.808l78.336 76.288-18.432 108.032c-6.144 36.864 15.36 51.712 47.616 34.816l96.768-50.688 96.768 50.688c33.28 17.408 53.76 1.536 47.616-34.816l-18.432-108.032 78.336-76.288c26.624-26.112 17.92-50.688-18.432-55.808l-108.544-15.872-48.64-98.304c-14.848-33.792-40.96-33.28-57.344 0zM888.32 0c15.872 0 28.16 12.8 28.16 28.16 0 5.632-2.048 11.776-5.632 16.384l-113.152 228.352c-95.744-92.16-258.048-101.888-258.048-101.888l75.776-149.504c3.072-12.8 13.824-21.504 27.136-21.504h245.76z m-501.76 0c12.8 0 24.064 9.216 27.136 21.504l75.776 149.504s-162.304 9.728-258.048 101.888L118.272 44.544c-3.584-4.608-5.632-10.24-5.632-16.384 0-15.36 12.8-28.16 28.16-28.16h245.76z"
          fill="#6B6B6B">

    </path>
</svg>