<?xml version="1.0" standalone="no"?><!DOCTYPE svg PUBLIC "-//W3C//DTD SVG 1.1//EN" "http://www.w3.org/Graphics/SVG/1.1/DTD/svg11.dtd"><svg t="1748760676475" class="icon" viewBox="0 0 1024 1024" version="1.1" xmlns="http://www.w3.org/2000/svg" p-id="3645" xmlns:xlink="http://www.w3.org/1999/xlink" width="256" height="256"><path d="M682.005967 1024H189.972439A154.349197 154.349197 0 0 1 35.914192 875.324336V299.788038a154.349197 154.349197 0 0 1 154.058247-148.639295H682.042336a154.349197 154.349197 0 0 1 154.021878 148.639295v575.536298a154.349197 154.349197 0 0 1-154.058247 148.675664z m-460.028982-181.844012h430.679358a38.223611 38.223611 0 0 0 32.18639-17.420656 35.023157 35.023157 0 0 0 0-37.896292 38.296349 38.296349 0 0 0-32.18639-17.420657H219.176588a38.296349 38.296349 0 0 0-32.222759 17.420657 35.132263 35.132263 0 0 0 0 37.896292 38.25998 38.25998 0 0 0 32.18639 17.420656z m0-181.844012h430.606621a38.332718 38.332718 0 0 0 32.259127-17.420656 35.023157 35.023157 0 0 0 0-37.896292 38.223611 38.223611 0 0 0-32.18639-17.420657H219.140219a38.25998 38.25998 0 0 0-32.18639 17.420657 35.132263 35.132263 0 0 0 0 37.896292 38.369087 38.369087 0 0 0 32.295496 17.420656z m33.968462-363.688024a38.005398 38.005398 0 0 0-38.150874 36.368803v109.106407a38.005398 38.005398 0 0 0 38.150874 36.368802h141.838329a38.041767 38.041767 0 0 0 38.187243-36.368802v-109.106407a38.041767 38.041767 0 0 0-38.187243-36.368803h-141.838329z" fill="#6572EC" p-id="3646"></path><path d="M985.467254 207.302174A239.197613 239.197613 0 0 0 769.872993 1.018326 51.752806 51.752806 0 0 0 760.453474 0H380.726808a47.934082 47.934082 0 0 0-47.279443 48.443245 47.934082 47.934082 0 0 0 47.279443 48.479613h351.177156V98.195766a136.492115 136.492115 0 0 1 18.948146-1.454752 143.838613 143.838613 0 0 1 142.020173 138.637875l0.254582 0.254582v588.774542a47.424918 47.424918 0 1 0 94.813467 0V222.940759a47.897713 47.897713 0 0 0-2.473078-15.638585z" fill="#6572EC" opacity=".33" p-id="3647"></path></svg>